<?xml version="1.0" encoding="utf-8"?>
<!-- Generator: Adobe Illustrator 27.1.1, SVG Export Plug-In . SVG Version: 6.00 Build 0)  -->
<svg version="1.1" id="Layer_1" xmlns="http://www.w3.org/2000/svg" xmlns:xlink="http://www.w3.org/1999/xlink" x="0px" y="0px"
	 viewBox="0 0 140 40" style="enable-background:new 0 0 140 40;" xml:space="preserve">
<style type="text/css">
	.st0{fill:#F80000;stroke:#F80000;stroke-width:0.5;stroke-miterlimit:10;}
	.st1{fill:#F80000;}
</style>
<path class="st0" d="M22.0475,10.0434H10.7523c-5.3641,0-9.7185,4.2464-9.7185,9.4742s4.3544,9.4575,9.7185,9.4575h11.2952
	c5.3662,0,9.7163-4.2296,9.7163-9.4575S27.4137,10.0434,22.0475,10.0434z M21.7962,25.6371H11.0015
	c-3.4736,0-6.2899-2.7353-6.2899-6.1194s2.8163-6.1341,6.2899-6.1341h10.7947c3.4758,0,6.2899,2.75,6.2899,6.1341
	S25.272,25.6371,21.7962,25.6371z"/>
<g>
	<path class="st1" d="M39.0082,10.2703h5.1608V25.289h14.1265l-0.701,3.0886H39.0082V10.2703z"/>
	<path class="st1" d="M68.865,28.3775L58.5969,10.2703h5.7116l4.7414,8.9556c1.7737,3.363,2.5094,5.0784,2.9485,6.1887h0.0693
		c0.3842-0.9923,0.9754-2.1334,3.0717-6.2773l4.7482-8.8671h5.5301L74.9748,28.3775H68.865z"/>
	<path class="st1" d="M114.4545,21.1629c0-3.2041,0.0241-6.4578,0.1637-8.4217h-0.0347c-1.221,3.1468-4.1656,9.1189-7.2643,15.6364
		h-4.5392c-2.3803-5.5898-5.6427-12.3822-6.9638-15.6287h-0.0347c0.1955,2.0944,0.3871,5.714,0.3871,8.7905v6.8382h-4.6856V10.2703
		h7.4597c2.7665,5.7116,5.6562,11.4342,6.388,13.6532h0.0347c1.0843-2.6596,3.9557-8.2132,6.5835-13.6532h7.505v18.1072h-4.9995
		V21.1629z"/>
</g>
</svg>
