<?xml version="1.0" encoding="utf-8"?>
<!-- Generator: Adobe Illustrator 27.1.1, SVG Export Plug-In . SVG Version: 6.00 Build 0)  -->
<svg version="1.1" id="Layer_1" xmlns="http://www.w3.org/2000/svg" xmlns:xlink="http://www.w3.org/1999/xlink" x="0px" y="0px"
	 viewBox="0 0 138.2727 22.5656" style="enable-background:new 0 0 138.2727 22.5656;" xml:space="preserve">
<style type="text/css">
	.st0{fill:#F80000;stroke:#F80000;stroke-width:0.5;stroke-miterlimit:10;}
	.st1{fill:#F80000;}
</style>
<path class="st0" d="M24.7422,0.25h-13.165C5.3252,0.25,0.25,5.1993,0.25,11.2926s5.0752,11.023,11.3272,11.023h13.165
	c6.2545,0,11.3247-4.9298,11.3247-11.023S30.9967,0.25,24.7422,0.25z M24.4492,18.425H11.8676
	c-4.0486,0-7.3311-3.1881-7.3311-7.1324s3.2825-7.1495,7.3311-7.1495h12.5816c4.0511,0,7.3311,3.2052,7.3311,7.1495
	S28.5004,18.425,24.4492,18.425z"/>
<g>
	<path class="st1" d="M44.5105,0.5145h6.0151v17.5048h16.4649l-0.817,3.5998H44.5105V0.5145z"/>
	<path class="st1" d="M79.3095,21.6191L67.3417,0.5145h6.657l5.5263,10.4381c2.0673,3.9197,2.9248,5.9191,3.4365,7.2131h0.0808
		c0.4478-1.1565,1.1369-2.4865,3.5802-7.3164l5.5341-10.3348h6.4455L86.4306,21.6191H79.3095z"/>
	<path class="st1" d="M132.4456,13.2101c0-3.7345,0.0281-7.5268,0.1908-9.8158h-0.0404
		c-1.4231,3.6677-4.8551,10.6283-8.4668,18.2247h-5.2906c-2.7744-6.515-6.5768-14.4319-8.1166-18.2158h-0.0404
		c0.2278,2.441,0.4512,6.6598,0.4512,10.2456v7.9701h-5.4612V0.5145h8.6946c3.2244,6.657,6.5925,13.3269,7.4454,15.9133h0.0404
		c1.2637-3.0998,4.6105-9.5728,7.6733-15.9133h8.7473v21.1046h-5.8271V13.2101z"/>
</g>
</svg>
