<?xml version="1.0" encoding="utf-8"?>
<!-- Generator: Adobe Illustrator 27.1.1, SVG Export Plug-In . SVG Version: 6.00 Build 0)  -->
<svg version="1.1" id="Layer_1" xmlns="http://www.w3.org/2000/svg" xmlns:xlink="http://www.w3.org/1999/xlink" x="0px" y="0px"
	 viewBox="0 0 38.3871 27.8262" style="enable-background:new 0 0 38.3871 27.8262;" xml:space="preserve">
<style type="text/css">
	.st0{fill:#F80000;}
</style>
<g>
	<path class="st0" d="M13.2965,0.229H6.2724c-3.3357,0-6.0436,2.6407-6.0436,5.8917s2.7079,5.8813,6.0436,5.8813h7.0241
		c3.3371,0,6.0422-2.6303,6.0422-5.8813S16.6336,0.229,13.2965,0.229z M13.1402,9.9262H6.4273c-2.1601,0-3.9115-1.701-3.9115-3.8055
		s1.7514-3.8146,3.9115-3.8146h6.7129c2.1615,0,3.9115,1.7101,3.9115,3.8146S15.3017,9.9262,13.1402,9.9262z"/>
	<path class="st0" d="M13.2964,12.2309h-7.024C2.8138,12.2309,0,9.49,0,6.1208C0,2.7458,2.8138,0,6.2724,0h7.024
		c3.4581,0,6.2715,2.7458,6.2715,6.1208C19.5679,9.49,16.7545,12.2309,13.2964,12.2309z M6.2724,0.4579
		c-3.2059,0-5.8145,2.5402-5.8145,5.6629c0,3.1165,2.6086,5.6522,5.8145,5.6522h7.024c3.2055,0,5.8136-2.5357,5.8136-5.6522
		c0-3.1228-2.6081-5.6629-5.8136-5.6629H6.2724z M13.1404,10.1553H6.4275c-2.2831,0-4.1405-1.81-4.1405-4.0345
		c0-2.2294,1.8574-4.0434,4.1405-4.0434h6.7128c2.2831,0,4.1405,1.814,4.1405,4.0434
		C17.2808,8.3453,15.4234,10.1553,13.1404,10.1553z M6.4275,2.5352c-2.0304,0-3.6826,1.6083-3.6826,3.5856
		c0,1.9723,1.6522,3.5766,3.6826,3.5766h6.7128c2.0304,0,3.6826-1.6043,3.6826-3.5766c0-1.9772-1.6522-3.5856-3.6826-3.5856H6.4275z
		"/>
</g>
<g>
	<path class="st0" d="M22.0349,0.2795h4.1077v10.1991h11.2438l-0.558,2.0974H22.0349V0.2795z"/>
	<path class="st0" d="M6.8548,27.8262L0.4546,16.5399h3.56L6.97,22.122c1.1056,2.0962,1.5641,3.1654,1.8378,3.8574H8.851
		c0.2395-0.6185,0.608-1.3297,1.9146-3.9127l2.9596-5.5269h3.4469L10.663,27.8262H6.8548z"/>
	<path class="st0" d="M35.2709,23.3292c0-1.9971,0.015-4.0252,0.102-5.2493h-0.0216c-0.761,1.9614-2.5964,5.6838-4.5279,9.7462
		h-2.8293c-1.4837-3.4841-3.5171-7.7179-4.3406-9.7414H23.632c0.1218,1.3054,0.2413,3.5616,0.2413,5.4792v4.2623h-2.9205V16.5399
		h4.6497c1.7244,3.5601,3.5255,7.127,3.9817,8.5101h0.0216c0.6758-1.6577,2.4656-5.1194,4.1035-8.5101h4.6779v11.2863h-3.1162
		V23.3292z"/>
</g>
</svg>
