<?xml version="1.0" encoding="utf-8"?>
<!-- Generator: Adobe Illustrator 27.1.1, SVG Export Plug-In . SVG Version: 6.00 Build 0)  -->
<svg version="1.1" id="Layer_1" xmlns="http://www.w3.org/2000/svg" xmlns:xlink="http://www.w3.org/1999/xlink" x="0px" y="0px"
	 viewBox="0 0 90 30" style="enable-background:new 0 0 90 30;" xml:space="preserve">
<style type="text/css">
	.st0{fill:#F80000;stroke:#F80000;stroke-width:0.5;stroke-miterlimit:10;}
	.st1{fill:#F80000;}
</style>
<path class="st0" d="M15.0782,8.5718H7.4077c-3.6427,0-6.5997,2.8837-6.5997,6.4339s2.957,6.4225,6.5997,6.4225h7.6705
	c3.6442,0,6.5983-2.8723,6.5983-6.4225S18.7224,8.5718,15.0782,8.5718z M14.9075,19.1614H7.5769
	c-2.3589,0-4.2715-1.8575-4.2715-4.1557s1.9125-4.1656,4.2715-4.1656h7.3306c2.3604,0,4.2715,1.8675,4.2715,4.1656
	S17.2679,19.1614,14.9075,19.1614z"/>
<g>
	<path class="st1" d="M26.5962,8.7259h3.5047V18.925h9.5932l-0.4761,2.0974H26.5962V8.7259z"/>
	<path class="st1" d="M46.8717,21.0224l-6.973-12.2965h3.8787l3.2199,6.0817c1.2045,2.2838,1.7041,3.4487,2.0023,4.2027h0.0471
		c0.2609-0.6739,0.6624-1.4487,2.086-4.2629l3.2244-6.0216h3.7554l-7.0917,12.2965H46.8717z"/>
	<path class="st1" d="M77.8313,16.1229c0-2.1759,0.0163-4.3855,0.1112-5.7191h-0.0235c-0.8292,2.137-2.8288,6.1926-4.9331,10.6186
		h-3.0826c-1.6165-3.796-3.8319-8.4087-4.7291-10.6133h-0.0235c0.1327,1.4223,0.2629,3.8803,0.2629,5.9696v4.6438h-3.1819V8.7259
		h5.0659c1.8787,3.8787,3.8411,7.7649,4.3381,9.2718h0.0235c0.7363-1.8061,2.6863-5.5776,4.4708-9.2718h5.0966v12.2965h-3.3951
		V16.1229z"/>
</g>
</svg>
